<svg width="20" height="20" viewBox="0 0 20 20" fill="none" xmlns="http://www.w3.org/2000/svg">
<path fill-rule="evenodd" clip-rule="evenodd" d="M7.91662 1.85018C8.48353 1.72831 9.06176 1.66685 9.64162 1.66684C11.9598 1.65551 14.1692 2.64931 15.6988 4.3914C17.2283 6.13349 17.9278 8.4529 17.6166 10.7502C17.1166 14.5835 13.3333 17.6835 9.46662 17.6835H3.91662C3.44485 17.6837 3.00764 17.4361 2.76516 17.0314C2.52269 16.6267 2.51058 16.1244 2.73329 15.7085L2.95829 15.2752C3.18222 14.8578 3.16633 14.3526 2.91662 13.9502C1.51804 11.7515 1.27792 9.00947 2.27307 6.60119C3.26823 4.19291 5.37394 2.42022 7.91662 1.85018ZM9.39995 16.4252C12.7971 16.3716 15.6863 13.932 16.3083 10.5918C16.5908 8.65607 16.0089 6.69389 14.7166 5.22518C13.4366 3.76041 11.5869 2.91907 9.64162 2.91684C9.14895 2.91779 8.65761 2.96804 8.17495 3.06684C6.02924 3.54426 4.24977 5.03541 3.40431 7.0645C2.55886 9.09359 2.75306 11.4071 3.92495 13.2668C4.42353 14.0501 4.45861 15.042 4.01662 15.8585L3.79162 16.2835C3.7733 16.3113 3.7733 16.3474 3.79162 16.3752C3.82495 16.4252 3.87495 16.4252 3.87495 16.4252H9.39995Z" fill="#1CCB77"/>
</svg>
